<svg xmlns="http://www.w3.org/2000/svg" viewBox="0 0 496.35 426.64"><defs><style>.cls-1{fill:none;stroke:#ddd;stroke-linecap:round;stroke-miterlimit:10;stroke-width:2px;}</style></defs><g id="Calque_2" data-name="Calque 2"><g id="design_graphique" data-name="design graphique"><line class="cls-1" x1="477.06" y1="180.82" x2="414.26" y2="179.92"/><path class="cls-1" d="M414.26,130.58c-.53-.38-1-.76-1.55-1.16-15.38-11.85-19.33-30.07-20.41-35C381.88,46.46,434.57-1,439.1,1.07a.39.39,0,0,1,.11.06c3.91,3.06,0,11.82,7.92,25.84,8.94,15.79,21.74,15.25,32.92,27.05,14.32,15.11,22.56,46.94,6.57,68.13-2.44,3.24-6.38,5.56-9.55,7.92"/><polyline class="cls-1" points="1 289.47 79.81 289.47 158.62 289.47"/><path class="cls-1" d="M48.48,1h76a28.34,28.34,0,0,1,28.34,28.35h0A24.55,24.55,0,0,1,128.23,53.9H71.55A27.54,27.54,0,0,0,44,81.43v.68A26,26,0,0,0,70,108.18h60.64a22.18,22.18,0,0,1,22.19,22.19h0a22.18,22.18,0,0,1-22.19,22.19H102a22.19,22.19,0,0,0-22.19,22.19V289.47"/><line class="cls-1" x1="9.98" y1="1" x2="29.98" y2="1"/><rect class="cls-1" x="1" y="187.35" width="157.62" height="238.3" rx="78.81"/><path class="cls-1" d="M414.26,130.07h62.81a0,0,0,0,1,0,0V397.3a28.35,28.35,0,0,1-28.35,28.35H442.6a28.35,28.35,0,0,1-28.35-28.35V130.07A0,0,0,0,1,414.26,130.07Z"/><path class="cls-1" d="M328,75.38V397.3a28.34,28.34,0,0,1-28.35,28.34H260.3A28.34,28.34,0,0,1,232,397.3V75.37"/><path class="cls-1" d="M279.06,2.4,232.14,74.79a1.08,1.08,0,0,0,.91,1.66h93.82a1.07,1.07,0,0,0,.9-1.66L280.86,2.4A1.07,1.07,0,0,0,279.06,2.4Z"/><line class="cls-1" x1="299.36" y1="348.88" x2="299.36" y2="76.45"/><line class="cls-1" x1="262.34" y1="348.88" x2="262.34" y2="138.33"/><line class="cls-1" x1="262.34" y1="98.18" x2="262.34" y2="118.17"/><polyline class="cls-1" points="231.96 348.88 262.34 348.88 299.36 348.88 327.96 348.88"/><line class="cls-1" x1="292.62" y1="20.54" x2="267.29" y2="20.54"/></g></g></svg>