<svg xmlns="http://www.w3.org/2000/svg" width="30.175" height="30.175" viewBox="0 0 30.175 30.175"><defs><style>.a{fill:#c4c4c4;}</style></defs><path class="a" d="M21.41,0H8.765A8.775,8.775,0,0,0,0,8.765V21.409a8.775,8.775,0,0,0,8.765,8.765H21.41a8.775,8.775,0,0,0,8.765-8.765V8.765A8.775,8.775,0,0,0,21.41,0Zm6.408,21.409a6.415,6.415,0,0,1-6.408,6.408H8.765A6.415,6.415,0,0,1,2.357,21.41V8.765A6.415,6.415,0,0,1,8.765,2.357H21.41a6.415,6.415,0,0,1,6.408,6.408Z"/><g transform="translate(6.954 6.954)"><path class="a" d="M126.133,118a8.133,8.133,0,1,0,8.133,8.133A8.142,8.142,0,0,0,126.133,118Zm0,13.909a5.776,5.776,0,1,1,5.776-5.776A5.782,5.782,0,0,1,126.133,131.909Z" transform="translate(-118 -118)"/></g><g transform="translate(22.16 5.658)"><ellipse class="a" cx="1.179" cy="1.179" rx="1.179" ry="1.179"/></g></svg>