<svg xmlns="http://www.w3.org/2000/svg" width="30.175" height="28.842" viewBox="0 0 30.175 28.842"><defs><style>.a{fill:#c4c4c4;}</style></defs><g transform="translate(0 0)"><path class="a" d="M3.659-.668a3.371,3.371,0,1,0-.085,6.725h.042A3.373,3.373,0,1,0,3.659-.668Zm0,0" transform="translate(0 0.668)"/><path class="a" d="M8.109,198.313h6.468v19.461H8.109Zm0,0" transform="translate(-7.727 -188.931)"/><path class="a" d="M233.513,188.625c-3.49,0-5.829,3.279-5.829,3.279v-2.822h-6.469v19.461h6.468V197.675a4.433,4.433,0,0,1,.213-1.579,3.541,3.541,0,0,1,3.319-2.365c2.341,0,3.277,1.785,3.277,4.4v10.411h6.468V197.384c0-5.977-3.191-8.759-7.447-8.759Zm0,0" transform="translate(-210.785 -179.7)"/></g></svg>