<svg xmlns="http://www.w3.org/2000/svg" viewBox="0 0 479.77 504.21"><defs><style>.cls-1{fill:none;stroke:#ddd;stroke-linecap:round;stroke-miterlimit:10;stroke-width:2px;}</style></defs><g id="Calque_2" data-name="Calque 2"><g id="conseils_aide" data-name="conseils aide"><path class="cls-1" d="M1,454.1,91.51,339.86A99.9,99.9,0,0,1,169.82,302H271a27.29,27.29,0,0,1,27.29,27.29h0A27.29,27.29,0,0,1,271,356.57H204.73"/><path class="cls-1" d="M296.44,339.28l11.89.06,57.64.33a21.56,21.56,0,0,0,13.95-5l63.5-53.19a21.53,21.53,0,1,1,27.47,33.16l-118.39,97a28.37,28.37,0,0,1-14.38,6.2l-37.77,4.82"/><polyline class="cls-1" points="146.12 503.21 202.19 435.21 269.93 426.56"/><polyline class="cls-1" points="308.33 339.34 380.6 280.65 395.86 268.26"/><path class="cls-1" d="M425.41,270.06a21.53,21.53,0,0,0-29.56-1.8"/><path class="cls-1" d="M425.41,270.06a21.51,21.51,0,0,1,4.14,23"/><line class="cls-1" x1="346.3" y1="257.47" x2="287" y2="307.14"/><path class="cls-1" d="M375.85,259.27a21.53,21.53,0,0,0-29.56-1.8"/><path class="cls-1" d="M375.85,259.27a21.53,21.53,0,0,1,4.75,21.38"/><path class="cls-1" d="M172.09,53.09a63.43,63.43,0,1,1-15.27,13.27"/><polyline class="cls-1" points="182.04 109.4 201.17 130.02 292.53 42.9"/><path class="cls-1" d="M251.72,213.76h38.45a52.62,52.62,0,0,0,52.62-52.62V53.62A52.62,52.62,0,0,0,290.17,1H114.55A48.18,48.18,0,0,0,66.37,49.19V166.78a47,47,0,0,0,47,47h28.41"/><line class="cls-1" x1="186.42" y1="213.76" x2="232.83" y2="213.76"/><path class="cls-1" d="M186.42,213.76,169,244a5.65,5.65,0,0,1-9.77,0l-17.44-30.23"/></g></g></svg>