<svg xmlns="http://www.w3.org/2000/svg" viewBox="0 0 445.49 497.45"><defs><style>.cls-1{fill:none;stroke:#ddd;stroke-linecap:round;stroke-miterlimit:10;stroke-width:2px;}</style></defs><g id="Calque_2" data-name="Calque 2"><g id="web"><path class="cls-1" d="M308.45,70.16H29.35A28.34,28.34,0,0,0,1,98.5V362a28.35,28.35,0,0,0,28.35,28.35h386.8A28.35,28.35,0,0,0,444.49,362V98.5a28.34,28.34,0,0,0-28.34-28.34H386.48"/><path class="cls-1" d="M297.72,183.49l-44.06-32L341.86,20.6C354.4,2,377.46-4.74,392.8,6.42h0c15.34,11.15,16.05,35.16,2.22,52.83Z"/><line class="cls-1" x1="244.09" y1="149.9" x2="244.08" y2="149.9"/><line class="cls-1" x1="326.35" y1="146.94" x2="279.41" y2="113.25"/><path class="cls-1" d="M254.75,152.24h0c-1.19-.19-2.38-.33-3.57-.43a42.17,42.17,0,0,0-4.61-.13c-19.41.32-33.46,12.57-37.3,15.92-37,32.22-23,101.76-18.16,102.8h.12c5-.12,7.05-9.49,21.78-16,16.6-7.33,26.55.75,42.56-2,20.51-3.58,46.12-24.19,45.95-50.73a41.46,41.46,0,0,0-1.79-11.79A45.57,45.57,0,0,0,297,183"/><line class="cls-1" x1="444.49" y1="302.43" x2="111.04" y2="302.43"/><line class="cls-1" x1="71.07" y1="302.43" x2="91.07" y2="302.43"/><line class="cls-1" x1="51.04" y1="302.43" x2="1" y2="302.43"/><path class="cls-1" d="M158.84,459.34H286.66A28.35,28.35,0,0,1,315,487.69v8.76a0,0,0,0,1,0,0H130.49a0,0,0,0,1,0,0v-8.76a28.35,28.35,0,0,1,28.35-28.35Z"/><line class="cls-1" x1="200.94" y1="390.33" x2="183.09" y2="459.35"/><line class="cls-1" x1="262.4" y1="459.35" x2="244.55" y2="390.33"/></g></g></svg>